<svg width="29" height="29" viewBox="0 0 29 29" fill="none" xmlns="http://www.w3.org/2000/svg">
<path d="M25.3009 7.95907C25.2726 7.51792 24.9077 7.17481 24.4655 7.17481H20.0377V5.86663C20.0377 3.247 17.5531 1.11536 14.5 1.11536C11.4468 1.11536 8.96228 3.247 8.96228 5.86663V7.17481H4.53451C4.09227 7.17481 3.72738 7.51792 3.69906 7.95907L2.51069 26.9958C2.49653 27.2267 2.57823 27.4522 2.73617 27.621C2.89411 27.7887 3.11522 27.8846 3.34614 27.8846H25.6538C25.8848 27.8846 26.1059 27.7887 26.2638 27.621C26.4218 27.4522 26.5034 27.2267 26.4893 26.9958L25.3009 7.95907ZM10.6354 5.86663C10.6354 4.16959 12.3694 2.78843 14.5 2.78843C16.6305 2.78843 18.3646 4.16959 18.3646 5.86663V7.17481H10.6354V5.86663ZM8.96228 8.84789V10.6647C8.96228 11.1266 9.33698 11.5013 9.79882 11.5013C10.2607 11.5013 10.6354 11.1266 10.6354 10.6647V8.84789H18.3646V10.6647C18.3646 11.1266 18.7393 11.5013 19.2012 11.5013C19.663 11.5013 20.0377 11.1266 20.0377 10.6647V8.84789H23.679L24.4039 20.4483H4.59612L5.32094 8.84789H8.96228ZM4.23605 26.2115L4.52647 21.5637H24.4735L24.7639 26.2115H4.23605Z" fill="#9C9C42"/>
</svg>
